# xmcd
#
# Track frame offsets: 
#        225
#        14375
#        28866
#        41378
#        55598
#        69591
#        82599
#        97974
#        113202
#        127533
#        140873
#        153613
#        166675
#        179621
#        193449
#        208081
#        222117
#        236430
#        250160
#        260027
#        274974
#        290949
#        307583
#        323403
#
# Disc length: 4485 seconds
#
# Revision: 2
# Processed by: cddbd v1.5.2PL0 Copyright (c) Steve Scherf et al.
# Submitted via: ExactAudioCopy v1.0b6
#
DISCID=55118218
DTITLE=Mantovani - Waltz Encores and American Waltzes
DYEAR=1958
DGENRE=Miscellaneous
TTITLE0=Charmaine
TTITLE1=Wyoming Lullaby
TTITLE2=Love Makes The World Go 'Round (La Ronde De L'amour)
TTITLE3=Love, Here Is My Heart
TTITLE4=Lovely Lady
TTITLE5=Where Is Your Heart (The Song From Moulin Rouge)
TTITLE6=Greensleeves
TTITLE7=The Lonely Ballerina
TTITLE8=The Kiss In Your Eyes
TTITLE9=Dear Love, My Love
TTITLE10=I Live For You
TTITLE11=Dream, Dream, Dream
TTITLE12=The Waltz You Saved For Me
TTITLE13=Beautiful Ohio
TTITLE14=When The Moon Comes Over The Mountain
TTITLE15=The Sidewalks Of New York
TTITLE16=Marcheta
TTITLE17=The Whiffenpoof Song (Baa! Baa! Baa!)
TTITLE18=Let Me Call You Sweetheart
TTITLE19=Missouri Waltz
TTITLE20=The Sweetheart Of Sigma Chi
TTITLE21=Meet Me In St. Louis, Louis
TTITLE22=Oh, My Darling Clementine
TTITLE23=Alice Blue Gown
EXTD=
EXTT0=
EXTT1=
EXTT2=
EXTT3=
EXTT4=
EXTT5=
EXTT6=
EXTT7=
EXTT8=
EXTT9=
EXTT10=
EXTT11=
EXTT12=
EXTT13=
EXTT14=
EXTT15=
EXTT16=
EXTT17=
EXTT18=
EXTT19=
EXTT20=
EXTT21=
EXTT22=
EXTT23=
PLAYORDER=
